<!-- Generator: Adobe Illustrator 27.5.0, SVG Export Plug-In . SVG Version: 6.00 Build 0)  -->
<svg version="1.1" xmlns="http://www.w3.org/2000/svg" x="0px" y="0px"
	 viewBox="0 0 1200 1200" width="70" height="70">
<path style="fill:#EBB211;" d="M480.086,474.013c14.189-40.147,46.094-78.639,86.783-94.588
			c19.489-7.639,39.76-13.06,59.456-20.114c27.878-9.985,53.806-24.313,76.388-43.547c15.66-13.338,30.284-26.063,49.875-33.742
			c16.948-6.643,35.211-9.406,53.238-5.922c81.769,15.818,84.8,102.334,61.837,168.079c-12.417,35.55-24.877,71.513-30.586,108.87
			c-4.414,28.884-4.847,53.093-16.82,80.153c-25.858,58.443-79.758,92.057-142.683,97.735
			c-100.706,9.087-202.543-49.336-210.753-158.06c-0.001-0.013-0.002-0.027-0.003-0.04
			C464.394,540.716,468.789,505.978,480.086,474.013z"/>
		
<ellipse transform="matrix(0.7071 -0.7071 0.7071 0.7071 -159.5565 446.5445)" style="fill:#CE1465;" cx="459.249" cy="415.874" rx="141.287" ry="141.287"/>
		
<path style="fill:#D55C39;" d="M600.536,415.874c0-15.955-2.683-31.274-7.558-45.579c-8.777,2.834-17.52,5.764-26.109,9.13
			c-40.689,15.948-72.594,54.441-86.783,94.588c-9.461,26.77-14.062,55.48-13.89,82.973
			C540.999,553.363,600.536,491.575,600.536,415.874z"/>
</svg>
